<?xml version="1.0" encoding="UTF-8" standalone="no"?>
<!DOCTYPE svg PUBLIC "-//W3C//DTD SVG 1.1//EN" "http://www.w3.org/Graphics/SVG/1.1/DTD/svg11.dtd">
<svg xmlns="http://www.w3.org/2000/svg" version="1.1" viewBox="0.00 0.00 453.00 408.00">
<g stroke-width="2.00" fill="none" stroke-linecap="butt">
<path stroke="#771416" vector-effect="non-scaling-stroke" d="
  M 430.11 207.25
  L 412.95 222.67
  Q 412.51 223.06 412.09 222.65
  L 402.06 212.75"
/>
<path stroke="#8e7d0e" vector-effect="non-scaling-stroke" d="
  M 402.06 212.75
  L 376.26 186.85
  Q 375.66 186.25 376.51 186.25
  L 400.51 186.25
  Q 401.02 186.25 401.00 185.74
  Q 400.89 183.11 400.51 180.49
  C 391.11 115.02 346.12 59.32 283.75 38.03
  C 223.98 17.63 157.67 30.39 110.59 72.65
  Q 60.11 117.95 52.27 187.29"
/>
<path stroke="#771416" vector-effect="non-scaling-stroke" d="
  M 52.27 187.29
  L 41.04 176.60
  Q 40.63 176.22 40.21 176.59
  L 24.02 191.03"
/>
<path stroke="#e87309" vector-effect="non-scaling-stroke" d="
  M 402.06 212.75
  Q 399.21 258.57 375.95 295.95
  C 322.08 382.52 205.38 406.50 122.82 345.17
  C 80.51 313.75 54.29 265.83 51.47 213.06
  Q 51.44 212.50 52.00 212.50
  L 76.97 212.50
  Q 77.57 212.50 77.14 212.07
  L 52.27 187.29"
/>
<path stroke="#8e7d0e" vector-effect="non-scaling-stroke" d="
  M 200.08 145.57
  Q 207.49 132.65 221.40 129.11
  Q 226.52 127.81 241.27 127.77
  Q 254.81 127.74 268.35 127.72
  Q 276.57 127.71 281.51 126.42
  C 297.60 122.22 309.40 111.52 310.89 94.17
  Q 311.32 89.05 311.21 76.02
  Q 311.20 75.52 310.70 75.52
  Q 266.60 75.47 222.50 75.52
  Q 209.12 75.54 202.56 76.64
  C 180.16 80.43 160.48 93.70 154.57 116.42
  Q 151.96 126.44 153.32 136.24
  C 156.77 161.27 176.91 176.04 201.25 177.67
  Q 201.86 177.71 201.52 177.20
  Q 191.09 161.27 200.08 145.57"
/>
<path stroke="#e87309" vector-effect="non-scaling-stroke" d="
  M 297.20 214.25
  Q 307.97 193.84 300.54 173.64
  C 293.14 153.49 276.24 143.96 255.57 141.95
  Q 254.60 141.86 255.11 142.69
  Q 264.68 158.47 256.66 173.37
  C 252.13 181.77 244.60 187.65 235.47 190.30
  Q 230.43 191.76 218.88 191.75
  Q 204.83 191.73 190.78 191.77
  Q 180.42 191.80 174.85 193.20
  C 159.21 197.13 146.76 208.34 145.44 225.12
  C 145.10 229.46 145.16 237.50 144.96 243.67
  Q 144.94 244.23 145.51 244.23
  Q 189.26 244.29 232.99 244.23
  Q 246.47 244.20 252.93 243.09
  C 271.61 239.88 288.04 231.62 297.20 214.25"
/>
<path stroke="#8e7d0e" vector-effect="non-scaling-stroke" d="
  M 135.37 284.31
  C 130.33 283.68 129.41 278.58 134.36 277.10
  Q 139.78 275.49 144.94 279.24
  Q 145.35 279.54 145.70 279.18
  L 152.19 272.67
  Q 152.59 272.27 152.19 271.87
  C 148.16 267.89 142.62 266.63 137.16 266.64
  C 128.42 266.67 120.79 270.50 120.01 280.13
  C 119.03 292.22 128.04 294.88 137.76 295.53
  C 143.96 295.94 142.91 303.17 136.28 303.31
  Q 129.65 303.45 125.29 300.51
  Q 124.89 300.24 124.54 300.58
  L 118.07 307.07
  Q 117.68 307.45 118.05 307.86
  Q 120.29 310.38 122.81 311.45
  C 133.95 316.22 154.94 314.37 153.20 297.22
  C 152.08 286.21 144.32 285.44 135.37 284.31"
/>
<path stroke="#8e7d0e" vector-effect="non-scaling-stroke" d="
  M 194.14 283.10
  A 16.30 16.30 0.0 0 0 177.84 266.80
  L 175.36 266.80
  A 16.30 16.30 0.0 0 0 159.06 283.10
  L 159.06 297.36
  A 16.30 16.30 0.0 0 0 175.36 313.66
  L 177.84 313.66
  A 16.30 16.30 0.0 0 0 194.14 297.36
  L 194.14 283.10"
/>
<path stroke="#8e7d0e" vector-effect="non-scaling-stroke" d="
  M 315.05 278.83
  C 317.87 274.96 324.85 276.99 327.95 279.17
  Q 328.40 279.48 328.79 279.09
  L 335.19 272.68
  Q 335.58 272.29 335.18 271.90
  C 330.30 267.06 323.12 266.16 316.51 266.85
  C 306.82 267.86 300.74 276.29 303.43 285.83
  C 305.98 294.90 314.82 294.48 322.17 295.98
  C 325.82 296.72 325.59 301.74 322.20 302.73
  Q 314.84 304.90 308.41 300.47
  Q 307.96 300.16 307.57 300.55
  L 301.05 307.09
  Q 300.65 307.49 301.03 307.91
  C 310.61 318.18 338.44 315.83 336.12 296.83
  C 334.80 286.01 327.00 285.55 318.29 284.29
  C 315.24 283.84 312.63 282.13 315.05 278.83"
/>
<path stroke="#8e7d0e" vector-effect="non-scaling-stroke" d="
  M 226.50 288.81
  A 0.31 0.31 0.0 0 1 225.93 288.97
  L 212.02 267.14
  A 0.31 0.31 0.0 0 0 211.76 267.00
  L 202.06 267.00
  A 0.31 0.31 0.0 0 0 201.75 267.31
  L 201.75 312.94
  A 0.31 0.31 0.0 0 0 202.06 313.25
  L 213.19 313.25
  A 0.31 0.31 0.0 0 0 213.50 312.94
  L 213.50 291.82
  A 0.31 0.31 0.0 0 1 214.07 291.66
  L 227.72 313.10
  A 0.31 0.31 0.0 0 0 227.98 313.24
  L 237.69 313.26
  A 0.31 0.31 0.0 0 0 238.00 312.95
  L 238.00 267.32
  A 0.31 0.31 0.0 0 0 237.69 267.01
  L 226.81 267.00
  A 0.31 0.31 0.0 0 0 226.50 267.31
  L 226.50 288.81"
/>
<path stroke="#8e7d0e" vector-effect="non-scaling-stroke" d="
  M 258.76 267.46
  A 0.45 0.45 0.0 0 0 258.31 267.01
  L 247.45 267.01
  A 0.45 0.45 0.0 0 0 247.00 267.46
  L 247.00 312.80
  A 0.45 0.45 0.0 0 0 247.45 313.25
  L 258.31 313.25
  A 0.45 0.45 0.0 0 0 258.76 312.80
  L 258.76 267.46"
/>
<path stroke="#8e7d0e" vector-effect="non-scaling-stroke" d="
  M 279.57 303.00
  A 0.32 0.32 0.0 0 1 279.25 302.68
  L 279.25 267.32
  A 0.32 0.32 0.0 0 0 278.93 267.00
  L 268.07 267.00
  A 0.32 0.32 0.0 0 0 267.75 267.32
  L 267.75 312.93
  A 0.32 0.32 0.0 0 0 268.07 313.25
  L 298.43 313.25
  A 0.32 0.32 0.0 0 0 298.75 312.93
  L 298.75 303.32
  A 0.32 0.32 0.0 0 0 298.43 303.00
  L 279.57 303.00"
/>
<path stroke="#8e7d0e" vector-effect="non-scaling-stroke" d="
  M 182.5559 282.8008
  A 5.65 5.65 0.0 0 0 176.9257 277.1311
  L 176.3457 277.1291
  A 5.65 5.65 0.0 0 0 170.6760 282.7593
  L 170.6241 297.6192
  A 5.65 5.65 0.0 0 0 176.2543 303.2889
  L 176.8343 303.2909
  A 5.65 5.65 0.0 0 0 182.5040 297.6607
  L 182.5559 282.8008"
/>
</g>
<path fill="#1d1d1b" d="
  M 430.11 207.25
  L 412.95 222.67
  Q 412.51 223.06 412.09 222.65
  L 402.06 212.75
  L 376.26 186.85
  Q 375.66 186.25 376.51 186.25
  L 400.51 186.25
  Q 401.02 186.25 401.00 185.74
  Q 400.89 183.11 400.51 180.49
  C 391.11 115.02 346.12 59.32 283.75 38.03
  C 223.98 17.63 157.67 30.39 110.59 72.65
  Q 60.11 117.95 52.27 187.29
  L 41.04 176.60
  Q 40.63 176.22 40.21 176.59
  L 24.02 191.03
  C 28.44 123.53 65.25 63.50 122.55 29.06
  C 182.79 -7.13 260.28 -9.07 321.99 24.25
  C 382.92 57.14 422.69 116.97 429.20 185.73
  Q 429.25 186.25 429.78 186.25
  L 452.01 186.25
  Q 453.22 186.25 452.33 187.06
  L 430.11 207.25
  Z"
/>
<path fill="#ffdc00" d="
  M 402.06 212.75
  Q 399.21 258.57 375.95 295.95
  C 322.08 382.52 205.38 406.50 122.82 345.17
  C 80.51 313.75 54.29 265.83 51.47 213.06
  Q 51.44 212.50 52.00 212.50
  L 76.97 212.50
  Q 77.57 212.50 77.14 212.07
  L 52.27 187.29
  Q 60.11 117.95 110.59 72.65
  C 157.67 30.39 223.98 17.63 283.75 38.03
  C 346.12 59.32 391.11 115.02 400.51 180.49
  Q 400.89 183.11 401.00 185.74
  Q 401.02 186.25 400.51 186.25
  L 376.51 186.25
  Q 375.66 186.25 376.26 186.85
  L 402.06 212.75
  Z
  M 200.08 145.57
  Q 207.49 132.65 221.40 129.11
  Q 226.52 127.81 241.27 127.77
  Q 254.81 127.74 268.35 127.72
  Q 276.57 127.71 281.51 126.42
  C 297.60 122.22 309.40 111.52 310.89 94.17
  Q 311.32 89.05 311.21 76.02
  Q 311.20 75.52 310.70 75.52
  Q 266.60 75.47 222.50 75.52
  Q 209.12 75.54 202.56 76.64
  C 180.16 80.43 160.48 93.70 154.57 116.42
  Q 151.96 126.44 153.32 136.24
  C 156.77 161.27 176.91 176.04 201.25 177.67
  Q 201.86 177.71 201.52 177.20
  Q 191.09 161.27 200.08 145.57
  Z
  M 297.20 214.25
  Q 307.97 193.84 300.54 173.64
  C 293.14 153.49 276.24 143.96 255.57 141.95
  Q 254.60 141.86 255.11 142.69
  Q 264.68 158.47 256.66 173.37
  C 252.13 181.77 244.60 187.65 235.47 190.30
  Q 230.43 191.76 218.88 191.75
  Q 204.83 191.73 190.78 191.77
  Q 180.42 191.80 174.85 193.20
  C 159.21 197.13 146.76 208.34 145.44 225.12
  C 145.10 229.46 145.16 237.50 144.96 243.67
  Q 144.94 244.23 145.51 244.23
  Q 189.26 244.29 232.99 244.23
  Q 246.47 244.20 252.93 243.09
  C 271.61 239.88 288.04 231.62 297.20 214.25
  Z
  M 135.37 284.31
  C 130.33 283.68 129.41 278.58 134.36 277.10
  Q 139.78 275.49 144.94 279.24
  Q 145.35 279.54 145.70 279.18
  L 152.19 272.67
  Q 152.59 272.27 152.19 271.87
  C 148.16 267.89 142.62 266.63 137.16 266.64
  C 128.42 266.67 120.79 270.50 120.01 280.13
  C 119.03 292.22 128.04 294.88 137.76 295.53
  C 143.96 295.94 142.91 303.17 136.28 303.31
  Q 129.65 303.45 125.29 300.51
  Q 124.89 300.24 124.54 300.58
  L 118.07 307.07
  Q 117.68 307.45 118.05 307.86
  Q 120.29 310.38 122.81 311.45
  C 133.95 316.22 154.94 314.37 153.20 297.22
  C 152.08 286.21 144.32 285.44 135.37 284.31
  Z
  M 194.14 283.10
  A 16.30 16.30 0.0 0 0 177.84 266.80
  L 175.36 266.80
  A 16.30 16.30 0.0 0 0 159.06 283.10
  L 159.06 297.36
  A 16.30 16.30 0.0 0 0 175.36 313.66
  L 177.84 313.66
  A 16.30 16.30 0.0 0 0 194.14 297.36
  L 194.14 283.10
  Z
  M 315.05 278.83
  C 317.87 274.96 324.85 276.99 327.95 279.17
  Q 328.40 279.48 328.79 279.09
  L 335.19 272.68
  Q 335.58 272.29 335.18 271.90
  C 330.30 267.06 323.12 266.16 316.51 266.85
  C 306.82 267.86 300.74 276.29 303.43 285.83
  C 305.98 294.90 314.82 294.48 322.17 295.98
  C 325.82 296.72 325.59 301.74 322.20 302.73
  Q 314.84 304.90 308.41 300.47
  Q 307.96 300.16 307.57 300.55
  L 301.05 307.09
  Q 300.65 307.49 301.03 307.91
  C 310.61 318.18 338.44 315.83 336.12 296.83
  C 334.80 286.01 327.00 285.55 318.29 284.29
  C 315.24 283.84 312.63 282.13 315.05 278.83
  Z
  M 226.50 288.81
  A 0.31 0.31 0.0 0 1 225.93 288.97
  L 212.02 267.14
  A 0.31 0.31 0.0 0 0 211.76 267.00
  L 202.06 267.00
  A 0.31 0.31 0.0 0 0 201.75 267.31
  L 201.75 312.94
  A 0.31 0.31 0.0 0 0 202.06 313.25
  L 213.19 313.25
  A 0.31 0.31 0.0 0 0 213.50 312.94
  L 213.50 291.82
  A 0.31 0.31 0.0 0 1 214.07 291.66
  L 227.72 313.10
  A 0.31 0.31 0.0 0 0 227.98 313.24
  L 237.69 313.26
  A 0.31 0.31 0.0 0 0 238.00 312.95
  L 238.00 267.32
  A 0.31 0.31 0.0 0 0 237.69 267.01
  L 226.81 267.00
  A 0.31 0.31 0.0 0 0 226.50 267.31
  L 226.50 288.81
  Z
  M 258.76 267.46
  A 0.45 0.45 0.0 0 0 258.31 267.01
  L 247.45 267.01
  A 0.45 0.45 0.0 0 0 247.00 267.46
  L 247.00 312.80
  A 0.45 0.45 0.0 0 0 247.45 313.25
  L 258.31 313.25
  A 0.45 0.45 0.0 0 0 258.76 312.80
  L 258.76 267.46
  Z
  M 279.57 303.00
  A 0.32 0.32 0.0 0 1 279.25 302.68
  L 279.25 267.32
  A 0.32 0.32 0.0 0 0 278.93 267.00
  L 268.07 267.00
  A 0.32 0.32 0.0 0 0 267.75 267.32
  L 267.75 312.93
  A 0.32 0.32 0.0 0 0 268.07 313.25
  L 298.43 313.25
  A 0.32 0.32 0.0 0 0 298.75 312.93
  L 298.75 303.32
  A 0.32 0.32 0.0 0 0 298.43 303.00
  L 279.57 303.00
  Z"
/>
<path fill="#1d1d1b" d="
  M 200.08 145.57
  Q 191.09 161.27 201.52 177.20
  Q 201.86 177.71 201.25 177.67
  C 176.91 176.04 156.77 161.27 153.32 136.24
  Q 151.96 126.44 154.57 116.42
  C 160.48 93.70 180.16 80.43 202.56 76.64
  Q 209.12 75.54 222.50 75.52
  Q 266.60 75.47 310.70 75.52
  Q 311.20 75.52 311.21 76.02
  Q 311.32 89.05 310.89 94.17
  C 309.40 111.52 297.60 122.22 281.51 126.42
  Q 276.57 127.71 268.35 127.72
  Q 254.81 127.74 241.27 127.77
  Q 226.52 127.81 221.40 129.11
  Q 207.49 132.65 200.08 145.57
  Z"
/>
<path fill="#d10a11" d="
  M 297.20 214.25
  C 288.04 231.62 271.61 239.88 252.93 243.09
  Q 246.47 244.20 232.99 244.23
  Q 189.26 244.29 145.51 244.23
  Q 144.94 244.23 144.96 243.67
  C 145.16 237.50 145.10 229.46 145.44 225.12
  C 146.76 208.34 159.21 197.13 174.85 193.20
  Q 180.42 191.80 190.78 191.77
  Q 204.83 191.73 218.88 191.75
  Q 230.43 191.76 235.47 190.30
  C 244.60 187.65 252.13 181.77 256.66 173.37
  Q 264.68 158.47 255.11 142.69
  Q 254.60 141.86 255.57 141.95
  C 276.24 143.96 293.14 153.49 300.54 173.64
  Q 307.97 193.84 297.20 214.25
  Z"
/>
<path fill="#d10a11" d="
  M 52.27 187.29
  L 77.14 212.07
  Q 77.57 212.50 76.97 212.50
  L 52.00 212.50
  Q 51.44 212.50 51.47 213.06
  C 54.29 265.83 80.51 313.75 122.82 345.17
  C 205.38 406.50 322.08 382.52 375.95 295.95
  Q 399.21 258.57 402.06 212.75
  L 412.09 222.65
  Q 412.51 223.06 412.95 222.67
  L 430.11 207.25
  C 427.49 321.16 333.62 411.04 219.50 407.22
  C 113.41 403.66 28.56 318.58 23.49 212.98
  Q 23.46 212.50 22.98 212.50
  L 1.00 212.50
  Q 0.26 212.50 0.81 212.00
  L 24.02 191.03
  L 40.21 176.59
  Q 40.63 176.22 41.04 176.60
  L 52.27 187.29
  Z"
/>
<path fill="#1d1d1b" d="
  M 134.36 277.10
  C 129.41 278.58 130.33 283.68 135.37 284.31
  C 144.32 285.44 152.08 286.21 153.20 297.22
  C 154.94 314.37 133.95 316.22 122.81 311.45
  Q 120.29 310.38 118.05 307.86
  Q 117.68 307.45 118.07 307.07
  L 124.54 300.58
  Q 124.89 300.24 125.29 300.51
  Q 129.65 303.45 136.28 303.31
  C 142.91 303.17 143.96 295.94 137.76 295.53
  C 128.04 294.88 119.03 292.22 120.01 280.13
  C 120.79 270.50 128.42 266.67 137.16 266.64
  C 142.62 266.63 148.16 267.89 152.19 271.87
  Q 152.59 272.27 152.19 272.67
  L 145.70 279.18
  Q 145.35 279.54 144.94 279.24
  Q 139.78 275.49 134.36 277.10
  Z"
/>
<path fill="#1d1d1b" d="
  M 194.14 297.36
  A 16.30 16.30 0.0 0 1 177.84 313.66
  L 175.36 313.66
  A 16.30 16.30 0.0 0 1 159.06 297.36
  L 159.06 283.10
  A 16.30 16.30 0.0 0 1 175.36 266.80
  L 177.84 266.80
  A 16.30 16.30 0.0 0 1 194.14 283.10
  L 194.14 297.36
  Z
  M 182.5559 282.8008
  A 5.65 5.65 0.0 0 0 176.9257 277.1311
  L 176.3457 277.1291
  A 5.65 5.65 0.0 0 0 170.6760 282.7593
  L 170.6241 297.6192
  A 5.65 5.65 0.0 0 0 176.2543 303.2889
  L 176.8343 303.2909
  A 5.65 5.65 0.0 0 0 182.5040 297.6607
  L 182.5559 282.8008
  Z"
/>
<path fill="#1d1d1b" d="
  M 327.95 279.17
  C 324.85 276.99 317.87 274.96 315.05 278.83
  C 312.63 282.13 315.24 283.84 318.29 284.29
  C 327.00 285.55 334.80 286.01 336.12 296.83
  C 338.44 315.83 310.61 318.18 301.03 307.91
  Q 300.65 307.49 301.05 307.09
  L 307.57 300.55
  Q 307.96 300.16 308.41 300.47
  Q 314.84 304.90 322.20 302.73
  C 325.59 301.74 325.82 296.72 322.17 295.98
  C 314.82 294.48 305.98 294.90 303.43 285.83
  C 300.74 276.29 306.82 267.86 316.51 266.85
  C 323.12 266.16 330.30 267.06 335.18 271.90
  Q 335.58 272.29 335.19 272.68
  L 328.79 279.09
  Q 328.40 279.48 327.95 279.17
  Z"
/>
<path fill="#1d1d1b" d="
  M 226.50 288.81
  L 226.50 267.31
  A 0.31 0.31 0.0 0 1 226.81 267.00
  L 237.69 267.01
  A 0.31 0.31 0.0 0 1 238.00 267.32
  L 238.00 312.95
  A 0.31 0.31 0.0 0 1 237.69 313.26
  L 227.98 313.24
  A 0.31 0.31 0.0 0 1 227.72 313.10
  L 214.07 291.66
  A 0.31 0.31 0.0 0 0 213.50 291.82
  L 213.50 312.94
  A 0.31 0.31 0.0 0 1 213.19 313.25
  L 202.06 313.25
  A 0.31 0.31 0.0 0 1 201.75 312.94
  L 201.75 267.31
  A 0.31 0.31 0.0 0 1 202.06 267.00
  L 211.76 267.00
  A 0.31 0.31 0.0 0 1 212.02 267.14
  L 225.93 288.97
  A 0.31 0.31 0.0 0 0 226.50 288.81
  Z"
/>
<rect fill="#1d1d1b" x="247.00" y="267.01" width="11.76" height="46.24" rx="0.45"/>
<path fill="#1d1d1b" d="
  M 279.57 303.00
  L 298.43 303.00
  A 0.32 0.32 0.0 0 1 298.75 303.32
  L 298.75 312.93
  A 0.32 0.32 0.0 0 1 298.43 313.25
  L 268.07 313.25
  A 0.32 0.32 0.0 0 1 267.75 312.93
  L 267.75 267.32
  A 0.32 0.32 0.0 0 1 268.07 267.00
  L 278.93 267.00
  A 0.32 0.32 0.0 0 1 279.25 267.32
  L 279.25 302.68
  A 0.32 0.32 0.0 0 0 279.57 303.00
  Z"
/>
<rect fill="#ffdc00" x="-5.94" y="-13.08" transform="translate(176.59,290.21) rotate(0.2)" width="11.88" height="26.16" rx="5.65"/>
</svg>
